# xmcd
# 
# Track frame offsets:
#     150
#     20120
#     34832
#     61483
#     83960
#     122144
#     153737
#     184806
#     201673
#     216713
#     234566
#     252719
#     272662
#     284940
# 
# Disc length: 4255
# 
# Revision: 0
# Processed by: cddbd v1.5.2PL0 Copyright (c) Steve Scherf et al.
# Submitted via: fre:ac v1.0.17
# 
DISCID=f0109d0e
DTITLE=Various Artist - Lucerne Blues Festival 2010 - Part 1
DYEAR=2010
DGENRE=Blues
TTITLE0=Lucerne Blues Festival 2010 - Mavis Staples - This little light
TTITLE1=Lucerne Blues Festival 2010 - The Billy Gibson Band - Down home
TTITLE2=Lucerne Blues Festival 2010 - Ronnie Baker Brooks - See you hurt no more
TTITLE3=Lucerne Blues Festival 2010 - The Nighthawks - Mighty long time
TTITLE4=Lucerne Blues Festival 2010 - Jimmy Johnson - Out on the road
TTITLE5=Lucerne Blues Festival 2010 - Guy Davis - Sweet Hannah
TTITLE6=Lucerne Blues Festival 2010 - Bryan Lee - I don't konw
TTITLE7=Lucerne Blues Festival 2010 - Walt's Blues Box - Who you think you are
TTITLE8=Lucerne Blues Festival 2010 - Lynwood Slim - All night long
TTITLE9=Lucerne Blues Festival 2010 - Nathan and the Zydeco cha chas - The bluest man
TTITLE10=Lucerne Blues Festival 2010 - Kid Ramos - Gratitude is riches (and complaint is poverty)
TTITLE11=Lucerne Blues Festival 2010 - Lou Pride - I can't hold it
TTITLE12=Lucerne Blues Festival 2010 - Tia Carroll - Match Box
TTITLE13=Lucerne Blues Festival 2010 - Dave Specter - Boss funk - Riverside Ride
EXTD=
EXTT0=
EXTT1=
EXTT2=
EXTT3=
EXTT4=
EXTT5=
EXTT6=
EXTT7=
EXTT8=
EXTT9=
EXTT10=
EXTT11=
EXTT12=
EXTT13=
PLAYORDER=
